# xmcd
#
# Track frame offsets:
#       150
#       11662
#       23191
#       36414
#       48005
#       60684
#       73306
#       83615
#       94418
#       106956
#       120071
#       134380
#       143922
#       148183
#       159329
#       175015
#       185741
#       199863
#       207060
#       220859
#
# Disc length: 3114 seconds
#
# Revision: 1
# Processed by: cddbd v1.5.2PL0 Copyright (c) Steve Scherf et al.
# Submitted via: FreeDbEdit v0.1
#
DISCID=1e0c2814
DTITLE=Dean Martin - Volare
DYEAR=2004
DGENRE=Jazz
TTITLE0=Baby Obey Me
TTITLE1=I'll Always Love You
TTITLE2=I'm in Love With You
TTITLE3=Don't Rock the Boat, Dear
TTITLE4=Wham!Bam!Thank You Ma'am
TTITLE5=The Peddler's Serenade
TTITLE6=Who's Sorry Now
TTITLE7=Tonda Wonda Hoy
TTITLE8=If
TTITLE9=Beside You
TTITLE10=I Love the Way You Say Goodnight
TTITLE11=You and Your Beautiful Eyes
TTITLE12=Peg O My Heart
TTITLE13=Takes Two to Tango
TTITLE14=To See You (Is to Love You)
TTITLE15=It's Beginning to Look Like Christmas
TTITLE16=The Money Song
TTITLE17=There'll Be a Hot Time in the Town
TTITLE18=Bye Bye Blackbird
TTITLE19=Which Way Did My Heart Go
EXTD=YEAR: 2004
EXTT0=
EXTT1=
EXTT2=
EXTT3=
EXTT4=
EXTT5=
EXTT6=
EXTT7=
EXTT8=
EXTT9=
EXTT10=
EXTT11=
EXTT12=
EXTT13=
EXTT14=
EXTT15=
EXTT16=
EXTT17=
EXTT18=
EXTT19=
PLAYORDER=
